<svg xmlns="http://www.w3.org/2000/svg" width="644" height="831" viewBox="0 0 644 831" fill="none">
<path d="M593.434 525.674C593.434 525.674 558.62 754.395 424.536 766.611C269.265 780.757 23 493 23 493C246.993 531.976 373 512 374.5 533C376 554 593.434 525.674 593.434 525.674Z" fill="#D9D9D9"/>
<path d="M233 70.6806C233 70.6806 484.293 -32.1008 589.733 70.6806C711.834 189.703 589.733 537 589.733 537H233V70.6806Z" fill="#D9D9D9"/>
<path d="M192 136.681C192 136.681 399.271 33.8992 486.239 136.681C586.951 255.703 546.479 546 486.239 603C426 660 330.982 550.585 231.5 517L192 136.681Z" fill="#242424"/>
<ellipse cx="474" cy="203" rx="128" ry="127" fill="#D9D9D9"/>
<ellipse cx="489" cy="189" rx="128" ry="127" fill="#242424"/>
<ellipse cx="507" cy="173" rx="128" ry="127" fill="#D9D9D9"/>
<rect x="233" width="72" height="308" fill="#D9D9D9"/>
</svg>